<svg xmlns="http://www.w3.org/2000/svg" xmlns:xlink="http://www.w3.org/1999/xlink" width="700" height="700" version="1.1" viewBox="129 126 700 700"><defs><clipPath id="clip-1"><rect id="clip-1" width="462" height="518" x="400.487" y="356.289" fill="none" transform="scale(0.76407,0.76062)"/></clipPath></defs><g id="document" fill="#fff" fill-rule="nonzero" stroke="#000" stroke-dashoffset="0" stroke-linecap="butt" stroke-linejoin="miter" stroke-miterlimit="10" stroke-width="0" font-family="none" font-size="none" font-weight="none" text-anchor="none" style="mix-blend-mode:normal"><rect id="Shape 1 1" width="700" height="500" x="129" y="90" transform="scale(1,1.4)" vector-effect="non-scaling-stroke"/></g><g fill="none" fill-rule="nonzero" stroke="none" stroke-dashoffset="0" stroke-linecap="butt" stroke-linejoin="miter" stroke-miterlimit="10" stroke-width="1" font-family="none" font-size="none" font-weight="none" text-anchor="none" style="mix-blend-mode:normal"><g><g id="stage"><g id="layer1 1"><g id="Group 1" clip-path="url(#clip-1)"><path id="CompoundPath 1" fill="#ffa52e" d="M657.62468,445.15104c-6.51751,-81.37849 -53.75227,-140.17425 -131.13721,-163.62409c-29.43195,-8.92205 -60.39968,-10.29116 -90.97009,-10.35201c-26.86468,-0.05324 -53.72935,0.17494 -80.59403,0.17494c-2.86526,0 -48.5184,0.15212 -48.52604,0l0.53485,25.4883l136.71491,-1.73421c5.84513,0.06846 11.68262,0.15973 17.52011,0.28903c39.05922,0.87471 76.3076,9.4849 108.69649,32.57726c88.23472,62.89548 87.82976,216.54027 -0.76407,279.09347c-33.92468,23.95185 -71.96768,34.46359 -113.86924,33.33027v-20.65077c4.30171,-0.34228 7.64069,-0.71498 10.99496,-0.8595c84.04762,-3.65097 134.78182,-48.19274 144.00413,-130.54483c9.07714,-81.04382 -28.81305,-155.00629 -114.49578,-166.38514c-41.36671,-5.49166 -83.58918,-4.69301 -125.73524,-4.25946h-63.59348v67.74062h1.42117c0.0382,0.22819 0.06877,0.45637 0.11461,0.68456h16.62615c44.37714,0.01521 88.75429,-0.34228 133.12379,0.16734c40.52623,0.46398 69.17883,20.90178 76.49861,56.21726c3.10976,14.99938 3.18617,31.32985 1.0697,46.55741c-4.68374,33.65734 -29.37082,55.96625 -63.49416,59.79216c-13.51639,1.51363 -27.13974,2.03846 -41.16805,3.05008v23.12278c15.01396,-0.81386 29.24857,-0.60089 43.18519,-2.51004c58.54299,-8.0017 91.03885,-50.1095 87.53942,-112.49537c-3.20909,-57.2517 -42.95597,-96.05081 -100.20004,-96.94073c-37.95896,-0.59328 -75.92556,-0.18255 -113.89216,-0.21297h-16.49626v-20.51386c51.09331,0 100.91827,-2.03085 150.42996,0.9888c20.02626,1.21699 41.31323,10.41286 58.63468,21.32012c35.1319,22.12637 45.08773,58.55236 47.70848,97.85347c4.75251,71.2851 -35.37641,121.72166 -106.22091,131.3739c-16.41221,2.23622 -33.19117,1.77985 -51.49827,2.64695c0,20.59753 -0.31327,40.60938 0.36675,60.5832c0.09169,2.67737 5.09634,7.36278 7.95396,7.46166c54.53926,1.91676 106.39665,-7.18023 150.20838,-42.22189c57.02249,-45.60664 74.92463,-107.13301 69.30872,-177.21633zM369.69281,527.75413l-23.68615,22.92502c0.05348,11.17347 0.10697,22.35456 0.15281,33.52803c0.12225,26.84981 -0.59597,53.74525 -0.59597,80.61788h24.96214v-9.19587h0.02292c0,-6.19143 -0.00764,-12.38286 -0.03056,-18.57429c-0.10697,-36.43359 -0.51193,-72.85958 -0.83284,-109.30077zM336.23422,438.03166h-28.84361c0,22.68162 -0.31327,45.11985 -0.42024,67.42116h-0.0382v159.37985h22.01284v-187.37058h-15.57937l11.46104,-19.76085zM396.20602,437.94799c-8.62634,0 -17.25268,-0.01521 -25.87903,-0.02282c-8.25195,0 -16.49626,0.05324 -24.7482,0.09127c-3.0792,0.01521 -6.1584,0.02282 -9.22996,0.02282l11.40755,19.66958l11.46104,19.76085h-13.54695l0.22922,48.40571l39.81565,-39.63579v23.92903c0.58069,45.66749 1.00093,91.33498 1.46701,136.99486c0.05348,5.21023 0,11.72112 0,17.67676h21.76069v-226.89988c-0.10697,0.46398 -11.95004,0.00761 -12.73703,0.00761z"/></g></g></g></g></g></svg>